<?xml version="1.0" encoding="utf-8"?>
<!-- Generator: Adobe Illustrator 19.2.1, SVG Export Plug-In . SVG Version: 6.00 Build 0)  -->
<svg version="1.1" id="Ebene_1" xmlns="http://www.w3.org/2000/svg" xmlns:xlink="http://www.w3.org/1999/xlink" x="0px" y="0px"
	 viewBox="0 0 385.2 66.7" style="enable-background:new 0 0 385.2 66.7;" xml:space="preserve">
<style type="text/css">
	.st0{fill:#DFA86A;}
	.st1{fill:#FAF4F3;}
	.st2{display:none;}
	.st3{display:inline;fill:#DFA76A;}
	.st4{display:none;fill:#FFFFFF;}
	.st5{fill:#FFFFFF;}
</style>
<g>
	<g>
		<polygon class="st0" points="114.1,55.6 125,55.6 125,38.7 143,38.7 143,28.4 125,28.4 125,21.4 144.1,21.4 144.1,11.1 
			114.1,11.1 		"/>
		<path class="st0" d="M185.3,16.3c-2.1-2.1-4.6-3.6-7.5-4.7c-2.7-1-5.8-1.5-9-1.5h-0.4c-3.4,0-6.5,0.6-9.3,1.7
			c-2.9,1.1-5.4,2.7-7.4,4.8c-2.1,2.1-3.7,4.6-4.9,7.5s-1.7,6.1-1.7,9.6c0,3.4,0.6,6.6,1.8,9.4c1.2,2.8,2.8,5.3,4.9,7.3
			c2.1,2,4.6,3.6,7.4,4.7c2.8,1.1,6,1.7,9.3,1.7l0,0l0,0c3.4,0,6.6-0.6,9.4-1.8c2.9-1.1,5.4-2.8,7.5-4.8s3.7-4.5,4.9-7.4
			c1.2-2.8,1.8-6,1.8-9.4c0-3.5-0.6-6.7-1.7-9.6C189,20.9,187.3,18.4,185.3,16.3z M180.6,33.1c0,2-0.3,3.8-0.9,5.4
			c-0.6,1.6-1.4,3-2.5,4.2c-1,1.1-2.3,2.1-3.8,2.7c-1.5,0.7-3.2,1-5,1s-3.5-0.3-5-1s-2.7-1.6-3.8-2.7c-1.1-1.2-1.9-2.6-2.5-4.2
			c-0.6-1.6-0.9-3.5-0.9-5.4c0-1.8,0.3-3.5,0.9-5c0.6-1.5,1.4-2.9,2.5-4c1-1.1,2.3-2,3.8-2.7c1.5-0.6,3.1-1,5-1c1.8,0,3.5,0.3,5,1
			c1.5,0.6,2.8,1.5,3.8,2.7c1.1,1.1,1.9,2.5,2.5,4C180.3,29.6,180.6,31.3,180.6,33.1z"/>
		<path class="st0" d="M224.2,33.3c1.9-2.3,2.9-5.2,2.9-8.6c0-2.6-0.5-4.8-1.5-6.6s-2.4-3.2-4-4.2s-3.4-1.7-5.5-2.1
			c-1.9-0.4-4-0.6-6-0.6h-16v44.5h11V38.3h2.3l9.4,17.3h13.1L218.7,37C220.9,36.2,222.8,35,224.2,33.3z M204.9,21h4.4
			c0.8,0,1.7,0.1,2.6,0.2c0.8,0.1,1.5,0.3,2.1,0.6c0.5,0.2,0.9,0.6,1.2,1s0.4,1,0.4,1.8c0,0.9-0.2,1.6-0.5,2.1s-0.8,0.8-1.3,1
			c-0.7,0.3-1.5,0.5-2.3,0.6c-1,0.1-2,0.1-2.9,0.1h-3.8V21H204.9z"/>
		<path class="st0" d="M242.7,24c1-1.1,2.3-2,3.8-2.7c1.5-0.6,3.1-1,5-1c1.8,0,3.6,0.3,5.3,0.9c1.6,0.6,3,1.4,4.1,2.5l1.3,1.3l8-8.1
			l-1.5-1.3c-2.4-2.1-5.1-3.6-8.1-4.4c-2.9-0.8-6-1.2-9.2-1.2c-3.4,0-6.5,0.6-9.3,1.7c-2.9,1.1-5.4,2.7-7.4,4.8
			c-2.1,2.1-3.7,4.6-4.9,7.5s-1.7,6.1-1.7,9.6c0,3.4,0.6,6.6,1.8,9.4c1.2,2.8,2.8,5.3,4.9,7.3c2.1,2,4.6,3.6,7.4,4.7
			c2.8,1.1,6,1.7,9.3,1.7c6.5,0,12.5-1.4,17.8-4.3l1-0.5V28H251v10.3h8.4V45c-0.9,0.4-1.8,0.7-2.9,0.9c-1.5,0.3-3.1,0.5-4.8,0.5
			c-1.8,0-3.5-0.3-5-1s-2.7-1.6-3.8-2.7c-1.1-1.2-1.9-2.6-2.5-4.2c-0.6-1.6-0.9-3.5-0.9-5.4c0-1.8,0.3-3.5,0.9-5
			C240.9,26.5,241.7,25.1,242.7,24z"/>
		<polygon class="st0" points="285.6,45.3 285.6,38 304.3,38 304.3,27.7 285.6,27.7 285.6,21.4 305.4,21.4 305.4,11.1 274.6,11.1 
			274.6,55.6 306.4,55.6 306.4,45.3 		"/>
	</g>
	<path class="st1" d="M91.6,16.7l-37.8-1.9H100v-3.7H47.8v7.8v6.2c0,0.1-1.5-9.1-1.9-11.7h-4.1v6.8v6.2c0,0.1-1.8-10.9-1.9-12.3
		c-10.4,0-27.9,0-27.9,0c1.9,1.6,12.4,10.6,19.9,14.3c3.7,1.8,8.3,1.9,12.4,2c2.1,0.1,4.2,0.2,5.8,1.8c2.3,2.2,2.8,5.7,0.8,8.3
		c-1.9,2.6-7.3,3.2-7.3,3.2L39,49.1v6.4h10.3l0.3-6.3l8.9-6.3c-0.9,0.8-3.1,2.8-6.2,7.7c-0.7,1.1-1.3,2.3-1.7,3.5
		c2.2-1.9,6.8-3.2,12.2-3.2c5.3,0,9.9,1.3,12.1,3.2c-0.4-1.2-1-2.4-1.7-3.5c-3.2-4.9-5.3-6.9-6.2-7.7l8.9,6.3l0.3,6.3h9.6v-6.4
		l-4.5-5.5c0,0-6.7-0.4-8.4-3.2C67.7,32.6,74.8,20.4,91.6,16.7z"/>
</g>
<g>
	<g class="st2">
		<polygon class="st3" points="114.2,55.7 125.1,55.7 125.1,38.7 143,38.7 143,28.4 125.1,28.4 125.1,21.5 144.2,21.5 144.2,11.1 
			114.2,11.1 		"/>
		<path class="st3" d="M185.4,16.3c-2.1-2.1-4.7-3.6-7.6-4.7c-2.8-1-5.8-1.5-9.1-1.5h-0.3c-3.4,0-6.5,0.6-9.3,1.6
			c-2.9,1.2-5.3,2.7-7.4,4.8s-3.7,4.5-4.9,7.4s-1.7,6-1.7,9.5c0,3.4,0.6,6.6,1.7,9.4c1.2,2.8,2.8,5.3,4.9,7.3c2.1,2,4.5,3.6,7.4,4.8
			c2.8,1,5.9,1.6,9.3,1.6l0,0l0,0c3.4,0,6.5-0.6,9.4-1.7s5.3-2.8,7.4-4.8c2.1-2.1,3.7-4.5,4.9-7.3c1.2-2.8,1.7-5.9,1.7-9.4
			s-0.6-6.7-1.7-9.5C189.1,20.9,187.4,18.4,185.4,16.3z M180.7,33.1c0,2-0.3,3.8-0.9,5.5c-0.6,1.6-1.4,3-2.4,4.2
			c-1,1.2-2.3,2.1-3.8,2.7c-1.5,0.7-3.1,1-5,1s-3.5-0.3-5-0.9c-1.5-0.7-2.8-1.6-3.8-2.7c-1-1.2-1.9-2.6-2.4-4.2
			c-0.6-1.6-0.9-3.5-0.9-5.5c0-1.7,0.3-3.5,0.9-5s1.4-2.9,2.4-4.1c1-1.2,2.3-2,3.8-2.7c1.5-0.7,3.1-0.9,5-0.9s3.5,0.3,5,0.9
			c1.5,0.7,2.8,1.5,3.8,2.7s1.9,2.6,2.4,4.1C180.4,29.6,180.7,31.3,180.7,33.1z"/>
		<path class="st3" d="M224.2,33.3c1.9-2.3,2.9-5.2,2.9-8.6c0-2.6-0.5-4.9-1.5-6.6c-1-1.7-2.3-3.1-4.1-4.2c-1.6-1-3.5-1.7-5.5-2.1
			c-2-0.3-4-0.6-6-0.6h-16v44.4h10.9V38.3h2.3l9.4,17.3h13.1L218.6,37C220.9,36.2,222.8,35.1,224.2,33.3z M205,21.1h4.4
			c0.8,0,1.7,0,2.7,0.1c0.8,0.1,1.5,0.2,2.1,0.6c0.5,0.2,0.9,0.6,1.2,1s0.5,1,0.5,1.9c0,0.9-0.1,1.6-0.5,2.1c-0.3,0.5-0.8,0.8-1.3,1
			c-0.7,0.2-1.5,0.5-2.3,0.6c-0.9,0.1-2,0.1-2.9,0.1H205V21.1z"/>
		<path class="st3" d="M242.8,24c1-1.2,2.3-2,3.8-2.7c1.5-0.7,3.1-0.9,5-0.9s3.6,0.3,5.2,0.9s3,1.4,4.1,2.6l1.3,1.3l8-8.1l-1.5-1.3
			c-2.3-2.1-5.1-3.6-8-4.4c-2.9-0.8-5.9-1.2-9.2-1.2c-3.4,0-6.5,0.6-9.3,1.6c-2.9,1.2-5.3,2.7-7.4,4.8c-2.1,2.1-3.7,4.5-4.9,7.4
			s-1.7,6-1.7,9.5c0,3.4,0.6,6.6,1.7,9.4c1.2,2.8,2.8,5.3,4.9,7.3c2.1,2,4.5,3.6,7.4,4.8c2.8,1,5.9,1.6,9.3,1.6
			c6.5,0,12.4-1.4,17.8-4.3l0.9-0.5V28.1h-19.3v10.2h8.4V45c-0.8,0.3-1.9,0.7-2.9,0.9c-1.5,0.3-3.1,0.5-4.9,0.5
			c-1.9,0-3.5-0.3-5-0.9c-1.5-0.7-2.8-1.6-3.8-2.7c-1-1.2-1.9-2.6-2.4-4.2c-0.6-1.6-0.9-3.5-0.9-5.5c0-1.7,0.3-3.5,0.9-5
			C240.9,26.6,241.8,25.2,242.8,24z"/>
		<polygon class="st3" points="285.6,45.4 285.6,38 304.3,38 304.3,27.7 285.6,27.7 285.6,21.5 305.4,21.5 305.4,11.1 274.7,11.1 
			274.7,55.7 306.4,55.7 306.4,45.4 		"/>
	</g>
	<path class="st4" d="M91.6,16.8l-37.8-1.9H100v-3.8H47.9v7.8v6.2c0,0.1-1.5-9.2-1.9-11.7H42v6.9v6.2c0,0.1-1.7-10.9-2-12.2
		c-10.5,0-27.9,0-27.9,0c1.9,1.6,12.4,10.6,19.9,14.3c3.7,1.9,8.4,1.9,12.4,2c2.1,0.1,4.3,0.2,5.8,1.7c2.2,2.2,2.8,5.7,0.8,8.4
		c-2,2.6-7.3,3.1-7.3,3.1l-4.5,5.6v6.4h10.2l0.3-6.4l8.8-6.3c-0.9,0.8-3,2.8-6.3,7.7c-0.7,1-1.3,2.3-1.7,3.5
		c2.2-1.9,6.9-3.1,12.1-3.1c5.3,0,9.9,1.3,12.1,3.1c-0.5-1.2-1-2.3-1.7-3.5c-3.1-4.9-5.2-6.9-6.3-7.7l8.8,6.3l0.3,6.4h9.5v-6.4
		l-4.5-5.6c0,0-6.6-0.5-8.4-3.1C67.8,32.6,74.9,20.4,91.6,16.8z"/>
	<g>
		<path class="st5" d="M331.2,55.7h-2.6v-2l0,0c-1,1.5-2.9,2.3-4.8,2.3c-4.3,0-7-3.1-7-7.2s2.8-7.2,7-7.2c2,0,3.8,0.9,4.8,2.3l0,0
			V33.7h2.6V55.7z M328.6,48.8c0-2.8-1.7-4.8-4.5-4.8c-2.8,0-4.5,2-4.5,4.8s1.7,4.8,4.5,4.8C326.9,53.6,328.6,51.6,328.6,48.8z"/>
		<path class="st5" d="M341.7,41.6c4.1,0,7.3,3.3,7.3,7.2s-3.3,7.2-7.3,7.2s-7.3-3.3-7.3-7.2S337.6,41.6,341.7,41.6z M341.7,53.6
			c2.8,0,4.5-2,4.5-4.8s-1.7-4.8-4.5-4.8c-2.8,0-4.5,2-4.5,4.8S338.9,53.6,341.7,53.6z"/>
		<path class="st5" d="M361.9,45.5c-0.9-1-2-1.5-3.4-1.5c-2.9,0-4.3,2.3-4.3,4.9s1.7,4.7,4.4,4.7c1.4,0,2.4-0.5,3.4-1.5l1.9,1.9
			c-1.4,1.5-3.3,2.1-5.2,2.1c-4.2,0-7.2-2.9-7.2-7.2c0-4.2,2.9-7.2,7.2-7.2c2,0,4,0.7,5.2,2.2L361.9,45.5z"/>
		<path class="st5" d="M373.3,45.4c-0.6-0.7-1.5-1.4-2.8-1.4c-1.2,0-2.3,0.6-2.3,1.5c0,1.6,2.3,1.9,3.5,2.1c2.3,0.6,4,1.4,4,4
			c0,3.1-2.8,4.3-5.6,4.3c-2.2,0-4-0.6-5.3-2.4l2-1.6c0.8,0.8,1.9,1.6,3.4,1.6c1.4,0,2.8-0.6,2.8-1.7c0-1.5-2.2-1.9-3.3-2.1
			c-2.2-0.6-4.2-1.3-4.2-4c0-2.9,2.7-4.2,5.2-4.2c1.9,0,3.7,0.7,4.7,2.3L373.3,45.4z"/>
	</g>
</g>
</svg>
