<svg version="1.1" id="Ebene_1" xmlns="http://www.w3.org/2000/svg" x="0" y="0" viewBox="0 0 385.2 66.7" style="enable-background:new 0 0 385.2 66.7" xml:space="preserve"><style>.st0{fill:#dfa86a}.st3{display:inline;fill:#dfa76a}.st5{fill:#fff}</style><path class="st0" d="M114.1 55.6H125V38.7h18V28.4h-18v-7h19.1V11.1h-30zM185.3 16.3c-2.1-2.1-4.6-3.6-7.5-4.7-2.7-1-5.8-1.5-9-1.5h-.4c-3.4 0-6.5.6-9.3 1.7-2.9 1.1-5.4 2.7-7.4 4.8-2.1 2.1-3.7 4.6-4.9 7.5s-1.7 6.1-1.7 9.6c0 3.4.6 6.6 1.8 9.4 1.2 2.8 2.8 5.3 4.9 7.3 2.1 2 4.6 3.6 7.4 4.7 2.8 1.1 6 1.7 9.3 1.7 3.4 0 6.6-.6 9.4-1.8 2.9-1.1 5.4-2.8 7.5-4.8s3.7-4.5 4.9-7.4c1.2-2.8 1.8-6 1.8-9.4 0-3.5-.6-6.7-1.7-9.6-1.4-2.9-3.1-5.4-5.1-7.5zm-4.7 16.8c0 2-.3 3.8-.9 5.4-.6 1.6-1.4 3-2.5 4.2-1 1.1-2.3 2.1-3.8 2.7-1.5.7-3.2 1-5 1s-3.5-.3-5-1-2.7-1.6-3.8-2.7c-1.1-1.2-1.9-2.6-2.5-4.2-.6-1.6-.9-3.5-.9-5.4 0-1.8.3-3.5.9-5 .6-1.5 1.4-2.9 2.5-4 1-1.1 2.3-2 3.8-2.7 1.5-.6 3.1-1 5-1 1.8 0 3.5.3 5 1 1.5.6 2.8 1.5 3.8 2.7 1.1 1.1 1.9 2.5 2.5 4 .6 1.5.9 3.2.9 5zM224.2 33.3c1.9-2.3 2.9-5.2 2.9-8.6 0-2.6-.5-4.8-1.5-6.6s-2.4-3.2-4-4.2-3.4-1.7-5.5-2.1c-1.9-.4-4-.6-6-.6h-16v44.5h11V38.3h2.3l9.4 17.3h13.1L218.7 37c2.2-.8 4.1-2 5.5-3.7zM204.9 21h4.4c.8 0 1.7.1 2.6.2.8.1 1.5.3 2.1.6.5.2.9.6 1.2 1s.4 1 .4 1.8c0 .9-.2 1.6-.5 2.1s-.8.8-1.3 1c-.7.3-1.5.5-2.3.6-1 .1-2 .1-2.9.1h-3.8V21h.1z"/><path class="st0" d="M242.7 24c1-1.1 2.3-2 3.8-2.7 1.5-.6 3.1-1 5-1 1.8 0 3.6.3 5.3.9 1.6.6 3 1.4 4.1 2.5l1.3 1.3 8-8.1-1.5-1.3c-2.4-2.1-5.1-3.6-8.1-4.4-2.9-.8-6-1.2-9.2-1.2-3.4 0-6.5.6-9.3 1.7-2.9 1.1-5.4 2.7-7.4 4.8-2.1 2.1-3.7 4.6-4.9 7.5s-1.7 6.1-1.7 9.6c0 3.4.6 6.6 1.8 9.4 1.2 2.8 2.8 5.3 4.9 7.3 2.1 2 4.6 3.6 7.4 4.7 2.8 1.1 6 1.7 9.3 1.7 6.5 0 12.5-1.4 17.8-4.3l1-.5V28H251v10.3h8.4V45c-.9.4-1.8.7-2.9.9-1.5.3-3.1.5-4.8.5-1.8 0-3.5-.3-5-1s-2.7-1.6-3.8-2.7c-1.1-1.2-1.9-2.6-2.5-4.2-.6-1.6-.9-3.5-.9-5.4 0-1.8.3-3.5.9-5 .5-1.6 1.3-3 2.3-4.1zM285.6 45.3V38h18.7V27.7h-18.7v-6.3h19.8V11.1h-30.8v44.5h31.8V45.3z"/><path d="m91.6 16.7-37.8-1.9H100v-3.7H47.8v14c0 .1-1.5-9.1-1.9-11.7h-4.1v13c0 .1-1.8-10.9-1.9-12.3H12c1.9 1.6 12.4 10.6 19.9 14.3 3.7 1.8 8.3 1.9 12.4 2 2.1.1 4.2.2 5.8 1.8 2.3 2.2 2.8 5.7.8 8.3-1.9 2.6-7.3 3.2-7.3 3.2L39 49.1v6.4h10.3l.3-6.3 8.9-6.3c-.9.8-3.1 2.8-6.2 7.7-.7 1.1-1.3 2.3-1.7 3.5 2.2-1.9 6.8-3.2 12.2-3.2 5.3 0 9.9 1.3 12.1 3.2-.4-1.2-1-2.4-1.7-3.5-3.2-4.9-5.3-6.9-6.2-7.7l8.9 6.3.3 6.3h9.6v-6.4l-4.5-5.5s-6.7-.4-8.4-3.2c-5.2-7.8 1.9-20 18.7-23.7z" style="fill:#faf4f3"/><g><path class="st5" d="M331.2 55.7h-2.6v-2c-1 1.5-2.9 2.3-4.8 2.3-4.3 0-7-3.1-7-7.2s2.8-7.2 7-7.2c2 0 3.8.9 4.8 2.3V33.7h2.6v22zm-2.6-6.9c0-2.8-1.7-4.8-4.5-4.8s-4.5 2-4.5 4.8 1.7 4.8 4.5 4.8 4.5-2 4.5-4.8zM341.7 41.6c4.1 0 7.3 3.3 7.3 7.2s-3.3 7.2-7.3 7.2-7.3-3.3-7.3-7.2 3.2-7.2 7.3-7.2zm0 12c2.8 0 4.5-2 4.5-4.8s-1.7-4.8-4.5-4.8-4.5 2-4.5 4.8 1.7 4.8 4.5 4.8zM361.9 45.5c-.9-1-2-1.5-3.4-1.5-2.9 0-4.3 2.3-4.3 4.9s1.7 4.7 4.4 4.7c1.4 0 2.4-.5 3.4-1.5l1.9 1.9c-1.4 1.5-3.3 2.1-5.2 2.1-4.2 0-7.2-2.9-7.2-7.2 0-4.2 2.9-7.2 7.2-7.2 2 0 4 .7 5.2 2.2l-2 1.6zM373.3 45.4c-.6-.7-1.5-1.4-2.8-1.4-1.2 0-2.3.6-2.3 1.5 0 1.6 2.3 1.9 3.5 2.1 2.3.6 4 1.4 4 4 0 3.1-2.8 4.3-5.6 4.3-2.2 0-4-.6-5.3-2.4l2-1.6c.8.8 1.9 1.6 3.4 1.6 1.4 0 2.8-.6 2.8-1.7 0-1.5-2.2-1.9-3.3-2.1-2.2-.6-4.2-1.3-4.2-4 0-2.9 2.7-4.2 5.2-4.2 1.9 0 3.7.7 4.7 2.3l-2.1 1.6z"/></g></svg>