<svg version="1.0" xmlns="http://www.w3.org/2000/svg" width="346.667" height="346.667" viewBox="0 0 260 260"><path d="M101.7 82.7c-.2.5-.3 6.8-.2 14.1 0 7.3-.2 13.5-.5 13.7-.3.2-.7-.8-.8-2.3-.1-1.5-.9-6.5-1.7-11.2-.8-4.7-1.5-8.8-1.5-9.1 0-.3-2.4-.5-5.2-.5l-5.3.2v11.7c.1 6.4-.3 11.7-.7 11.7-.4 0-.8-.8-.9-1.8 0-.9-.3-2.8-.5-4.2-.7-3.9-2.4-14.4-2.4-15 0-.3-15.5-.5-34.5-.5s-34.5.2-34.5.6c0 1.4 24.9 20.8 36.1 28.1 14.8 9.6 19.6 11 43.6 12.2 4.6.3 9.5 1.2 11.2 2 4.3 2.3 7.4 7.1 7.8 12.5.8 8.7-4.7 14.6-16.2 17.2-4.5 1-5.6 1.9-10.5 8l-5.5 6.9-.1 8-.1 8H105.6l.2-6.7c.1-3.7.4-7.4.7-8.3.3-.8 4.3-4.1 8.9-7.2l8.4-5.7-5.7 7.7c-5.6 7.4-11.1 16.9-9.4 16 11.2-5.5 18.4-7.1 30.8-7.1 9.6 0 19.5 2.1 25.8 5.3 2 1.1 3.7 1.7 3.7 1.4 0-2.3-9.2-16.5-13.5-20.8-3.6-3.6-.7-2.2 6.5 3.1 4.1 3 7.9 5.9 8.4 6.3.9.9 1.3 4.8 1.5 12.7l.1 3.3h24.6l-.1-7.8c0-8.4-.5-9.5-6.9-16.7-2-2.2-3.6-4.3-3.6-4.6 0-.3-3-1.1-6.8-1.8-13.7-2.4-18.7-8-18.7-20.7 0-6 .5-8 3.3-13.5 3.8-7.5 10-14.2 17.8-19.4 6.8-4.5 16.6-9 23-10.6 6.8-1.6 7.2-2.4 1.1-2.5-5.8-.1-28.6-1.1-45.2-2-6.1-.3-13.1-.7-15.8-.8-2.6-.2-4.9-.5-5.1-.7-.3-.2 20.4-.4 46-.4H232V82h-64.9c-35.8 0-65.2.3-65.4.7zm36.3 8.9c0 .8-1.9 1.3-2.4.6-.3-.5.1-.9.9-.9s1.5.2 1.5.3z"/></svg>